{"title":"Fantastic.Four.2015.HDTS.XVID.AC3.HQ.Hive-CM8","uid":12217505,"size":1452964667,"categoryP":"video","categoryS":"movies","magnet":"?xt=urn:btih:b1ce03150f1b571443dd0fa0b0ff8b38d4206c31&amp;dn=Fantastic.Four.2015.HDTS.XVID.AC3.HQ.Hive-CM8&amp;tr=udp%3A%2F%2Ftracker.openbittorrent.com%3A80&amp;tr=udp%3A%2F%2Fopen.demonii.com%3A1337&amp;tr=udp%3A%2F%2Ftracker.coppersurfer.tk%3A6969&amp;tr=udp%3A%2F%2Fexodus.desync.com%3A6969","seeders":3,"leechers":1,"uploader":"TvTeam","files":4,"time":1439268384,"description":"------------------------------------------------------------------------\n\n &lt;a href=&quot; https://www.torrenting.com&quot; rel=&quot;nofollow&quot; target=&quot;_NEW&quot;&gt; https://www.torrenting.com&lt;/a&gt;\n\nSign up is OPEN - for time being. Come and have fun\n\n.......................................................................................................................[center][img]http://img661.imageshack.us/img661/724/Mj2HNC.jpg[/img]\n\n \n[color=blue][size=4][b]Fantastic.Four.2015.HDTS.XVID.AC3.HQ.Hive-CM8[/b][/size][/color]\n\nThx Hive\n\nCM8 Doing It Right The First Time\n\n\nSources:\n\nVideo: 720P Latino HDCAM\n\nAudio: Sweet Line Big Thx to S4NDM4N\n\n\nNotes:\n\nhere is another great quality cam, no movement, no autofocus problems, no flicker, all bright\nperfect as is should be.\ndone both avi and 720p from sourcefile whatever you prefer\n\nEncode:\n\nvideo was perfect, needed a bit rotating and fixing perspective, otherwise not much to do, it was already very bright\ncolours were good, fixed gamma relation to contrast, added sharpness and removed some noise in the video.\n\nAudio Sweet Line from S4NDM4N, lipsynced to my videos\n\nwill do me till retail\nenjoy\n\nVideo: 720x288 @bitrate 1800 2pass\nAudio: English AC3 2.0 Stereo\nSample: yes included\n\nPS: Still need Line for Pixels anyone?\n\n\n &lt;a href=&quot;\nhttp://www.imdb.com/title/tt1502712/&quot; rel=&quot;nofollow&quot; target=&quot;_NEW&quot;&gt;\nhttp://www.imdb.com/title/tt1502712/&lt;/a&gt;\n\n\nGeneral\nComplete name                  : Fantastic.Four.2015.HDTS.XVID.AC3.HQ.Hive-CM8.avi\nFormat                         : AVI\nFormat/Info                    : Audio Video Interleave\nFile size                      : 1.33 GiB\nDuration                       : 1h 32mn\nOverall bit rate               : 2 063 Kbps\nWriting application            : Nandub v1.0rc2\nWriting library                : Nandub build 1853/release\n\nVideo\nID                             : 0\nFormat                         : MPEG-4 Visual\nFormat profile                 : Advanced Simple@L5\nFormat settings, BVOP          : 2\nFormat settings, QPel          : Yes\nFormat settings, GMC           : No warppoints\nFormat settings, Matrix        : Default (H.263)\nMuxing mode                    : Packed bitstream\nCodec ID                       : XVID\nCodec ID/Hint                  : XviD\nDuration                       : 1h 32mn\nBit rate                       : 1 795 Kbps\nWidth                          : 720 pixels\nHeight                         : 288 pixels\nDisplay aspect ratio           : 2.500\nFrame rate                     : 29.970 fps\nColor space                    : YUV\nChroma subsampling             : 4:2:0\nBit depth                      : 8 bits\nScan type                      : Progressive\nCompression mode               : Lossy\nBits/(Pixel*Frame)             : 0.289\nStream size                    : 1.16 GiB (87%)\nWriting library                : XviD 1.2.1 (UTC 2008-12-04)\n\nAudio\nID                             : 1\nFormat                         : AC-3\nFormat/Info                    : Audio Coding 3\nMode extension                 : CM (complete main)\nFormat settings, Endianness    : Big\nCodec ID                       : 2000\nDuration                       : 1h 32mn\nBit rate mode                  : Constant\nBit rate                       : 256 Kbps\nChannel(s)                     : 2 channels\nChannel positions              : Front: L R\nSampling rate                  : 48.0 KHz\nBit depth                      : 16 bits\nCompression mode               : Lossy\nStream size                    : 169 MiB (12%)\nAlignment                      : Split accross interleaves\nInterleave, duration           : 33 ms (1.00 video frame)\nInterleave, preload duration   : 500 ms\n\n\nScreens \n\n[img]http://img673.imageshack.us/img673/8007/RUmvar.png[/img]\n[img]http://img661.imageshack.us/img661/7170/O8RoaC.png[/img]\n[img]http://img537.imageshack.us/img537/117/l0C4p1.png[/img]\n[img]http://img540.imageshack.us/img540/3739/vo2ORH.png[/img]\n[img]http://img537.imageshack.us/img537/3417/rxMLiU.png[/img]\n[img]http://img673.imageshack.us/img673/1213/htHDB8.png[/img]\n[img]http://img633.imageshack.us/img633/4067/FJdrKM.png[/img]\n[img]http://img538.imageshack.us/img538/5150/gcbMUp.png[/img]\n\n\n\nPlot\n\nFour young outsiders teleport to an alternate and dangerous universe which alters \ntheir physical form in shocking ways. The four must learn to harness their new abilities and work \ntogether to save Earth from a former friend turned enemy.\n\nCast\n\nMiles Teller \t  ... Reed Richards\nMichael B. Jordan ... Johnny Storm\nKate Mara \t  ... Sue Storm\nJamie Bell \t  ... Ben Grimm / The Thing\nToby Kebbell \t  ... Victor Von Doom / Dr. Doom \n\n\nGreetz\n\nSugarB,iNCOMiNG,Izzy,MenaceIISociety,jiinx,SiMPLE,CherryBomb\nViSiON,YanKeeS,COPYxRIGHT,THC,VAiN,ACAB,DRs\nLKRG,Kingstoner,ACAB,SiMPLE,TiTAN\nUnevano,BigVik,Rapeseed,SAFC,goldadvance,KaN1vE,Pinnz,Wayne,HiGH\nSeeN,jtr,Limey,ICONiK,TED,rkofan,mrtoke09 (ya whinging old man here ya go lol )\nMr Hive\n\n\nLOOKING FOR ANYTHING YOU WANT TO LOOK AND SOUND BETTER\n\nCOME FIND US WE DONT BITE \n&lt;a class=&quot;__cf_email__&quot; href=&quot;/cdn-cgi/l/email-protection&quot; data-cfemail=&quot;7a3937423a120f0912171b131654171f&quot;&gt;[email&amp;#160;protected]&lt;/a&gt;&lt;script data-cfhash='f9e31' type=&quot;text/javascript&quot;&gt;\n/* &lt;![CDATA[ */!function(){try{var t=&quot;currentScript&quot;in document?document.currentScript:function(){for(var t=document.getElementsByTagName(&quot;script&quot;),e=t.length;e--;)if(t[e].getAttribute(&quot;data-cfhash&quot;))return t[e]}();if(t&amp;&amp;t.previousSibling){var e,r,n,i,c=t.previousSibling,a=c.getAttribute(&quot;data-cfemail&quot;);if(a){for(e=&quot;&quot;,r=parseInt(a.substr(0,2),16),n=2;a.length-n;n+=2)i=parseInt(a.substr(n,2),16)^r,e+=String.fromCharCode(i);e=document.createTextNode(e),c.parentNode.replaceChild(e,c)}t.parentNode.removeChild(t);}}catch(u){}}()/* ]]&gt; */&lt;/script&gt;[/center]","torrent":{"xt":"urn:btih:b1ce03150f1b571443dd0fa0b0ff8b38d4206c31","amp;dn":"Fantastic.Four.2015.HDTS.XVID.AC3.HQ.Hive-CM8","amp;tr":["udp%3A%2F%2Ftracker.openbittorrent.com%3A80","udp%3A%2F%2Fopen.demonii.com%3A1337","udp%3A%2F%2Ftracker.coppersurfer.tk%3A6969","udp%3A%2F%2Fexodus.desync.com%3A6969"],"infoHash":"b1ce03150f1b571443dd0fa0b0ff8b38d4206c31","infoHashBuffer":{"type":"Buffer","data":[177,206,3,21,15,27,87,20,67,221,15,160,176,255,139,56,212,32,108,49]},"announce":[],"urlList":[]}}